arm26Opt
version=1
nRows=19
nColumns=21
inDegrees=no
endheader
time	r_shoulder_elev	r_elbow_flex	r_shoulder_elev_u	r_elbow_flex_u	TRIlong.activation	TRIlong.fiber_length	TRIlat.activation	TRIlat.fiber_length	TRImed.activation	TRImed.fiber_length	BIClong.activation	BIClong.fiber_length	BICshort.activation	BICshort.fiber_length	BRA.activation	BRA.fiber_length	DeltAnt.activation	DeltAnt.fiber_length	DeltPost.activation	DeltPost.fiber_length
        1.381728	       -0.508195	        0.872999	        1.271011	        1.256444	        0.060705	        0.138450	        0.053022	        0.089728	        0.052090	        0.084767	        0.146309	        0.132447	        0.164791	        0.136343	        0.102403	        0.081421	        0.051696	        0.177801	        0.062064	        0.079087
        1.388030	       -0.500123	        0.880946	        1.291163	        1.265316	        0.060283	        0.138859	        0.052895	        0.089903	        0.051997	        0.084942	        0.148396	        0.132053	        0.166934	        0.135822	        0.103578	        0.081307	        0.052280	        0.177575	        0.061620	        0.079602
        1.394331	       -0.491922	        0.888946	        1.311925	        1.273513	        0.059866	        0.139274	        0.052771	        0.090079	        0.051906	        0.085117	        0.150489	        0.131654	        0.169063	        0.135296	        0.104757	        0.081191	        0.052896	        0.177345	        0.061192	        0.080125
        1.400633	       -0.483587	        0.896994	        1.333314	        1.281036	        0.059455	        0.139696	        0.052649	        0.090256	        0.051817	        0.085292	        0.152587	        0.131248	        0.171180	        0.134764	        0.105942	        0.081074	        0.053544	        0.177110	        0.060778	        0.080654
        1.406934	       -0.475115	        0.905088	        1.355367	        1.287857	        0.059048	        0.140124	        0.052529	        0.090433	        0.051730	        0.085469	        0.154690	        0.130836	        0.173282	        0.134227	        0.107133	        0.080955	        0.054224	        0.176870	        0.060379	        0.081190
        1.416661	       -0.461758	        0.917658	        1.390716	        1.297077	        0.058432	        0.140797	        0.052348	        0.090707	        0.051600	        0.085742	        0.157946	        0.130189	        0.176499	        0.133387	        0.108979	        0.080768	        0.055338	        0.176490	        0.059791	        0.082033
        1.426388	       -0.448048	        0.930307	        1.428020	        1.304205	        0.057827	        0.141487	        0.052173	        0.090982	        0.051475	        0.086015	        0.161212	        0.129528	        0.179678	        0.132536	        0.110837	        0.080578	        0.056533	        0.176097	        0.059237	        0.082895
        1.436115	       -0.433966	        0.943018	        1.467220	        1.309733	        0.057236	        0.142192	        0.052002	        0.091257	        0.051355	        0.086289	        0.164486	        0.128854	        0.182815	        0.131671	        0.112705	        0.080383	        0.057811	        0.175691	        0.058715	        0.083775
        1.445841	       -0.419493	        0.955781	        1.508236	        1.314463	        0.056656	        0.142915	        0.051837	        0.091533	        0.051239	        0.086564	        0.167766	        0.128166	        0.185907	        0.130792	        0.114582	        0.080186	        0.059173	        0.175271	        0.058226	        0.084676
        1.463611	       -0.391989	        0.979210	        1.588063	        1.322052	        0.055630	        0.144279	        0.051547	        0.092036	        0.051038	        0.087064	        0.173770	        0.126875	        0.191429	        0.129157	        0.118035	        0.079816	        0.061888	        0.174465	        0.057411	        0.086374
        1.481381	       -0.363001	        1.002748	        1.675650	        1.326979	        0.054645	        0.145705	        0.051274	        0.092537	        0.050852	        0.087563	        0.179780	        0.125538	        0.196769	        0.127492	        0.121512	        0.079436	        0.064908	        0.173605	        0.056694	        0.088145
        1.499150	       -0.332382	        1.026337	        1.771796	        1.327653	        0.053700	        0.147198	        0.051015	        0.093036	        0.050677	        0.088059	        0.185785	        0.124156	        0.201905	        0.125804	        0.125009	        0.079047	        0.068246	        0.172684	        0.056071	        0.089994
        1.516920	       -0.299968	        1.049882	        1.877959	        1.321640	        0.052797	        0.148763	        0.050770	        0.093529	        0.050515	        0.088551	        0.191775	        0.122728	        0.206819	        0.124100	        0.128522	        0.078650	        0.071915	        0.171696	        0.055536	        0.091926
        1.534690	       -0.265571	        1.073252	        1.995176	        1.307492	        0.051934	        0.150403	        0.050539	        0.094015	        0.050364	        0.089034	        0.197744	        0.121255	        0.211492	        0.122388	        0.132047	        0.078247	        0.075927	        0.170633	        0.055083	        0.093947
        1.563074	       -0.206027	        1.109897	        2.204998	        1.271191	        0.050641	        0.153194	        0.050198	        0.094770	        0.050144	        0.089786	        0.207214	        0.118816	        0.218420	        0.119670	        0.137697	        0.077598	        0.083072	        0.168759	        0.054523	        0.097371
        1.571589	       -0.186963	        1.120666	        2.273182	        1.257818	        0.050274	        0.154075	        0.050102	        0.094990	        0.050083	        0.090004	        0.210037	        0.118064	        0.220363	        0.118867	        0.139395	        0.077403	        0.085397	        0.168149	        0.054392	        0.098446
        1.580105	       -0.167307	        1.131315	        2.343968	        1.243359	        0.049916	        0.154977	        0.050009	        0.095207	        0.050024	        0.090220	        0.212851	        0.117303	        0.222240	        0.118072	        0.141094	        0.077209	        0.087808	        0.167516	        0.054278	        0.099544
        1.588620	       -0.147038	        1.141839	        2.417122	        1.228198	        0.049569	        0.155901	        0.049919	        0.095420	        0.049967	        0.090432	        0.215654	        0.116534	        0.224051	        0.117289	        0.142794	        0.077016	        0.090307	        0.166859	        0.054179	        0.100665
        1.597135	       -0.126135	        1.152230	        2.492656	        1.212252	        0.049231	        0.156848	        0.049832	        0.095629	        0.049913	        0.090641	        0.218447	        0.115755	        0.225793	        0.116518	        0.144494	        0.076823	        0.092893	        0.166176	        0.054097	        0.101808
